<mxfile host="app.diagrams.net" modified="2023-04-22T19:08:44.237Z" agent="Mozilla/5.0 (X11; Linux x86_64; rv:112.0) Gecko/20100101 Firefox/112.0" etag="2sJl6SwSJvDpAslajn7J" version="21.2.1" type="device">
  <diagram name="Page-1" id="tfmDBc3miOEakFV3B7y-">
    <mxGraphModel dx="2284" dy="723" grid="1" gridSize="10" guides="1" tooltips="1" connect="1" arrows="1" fold="1" page="1" pageScale="1" pageWidth="850" pageHeight="1100" math="0" shadow="0">
      <root>
        <mxCell id="0" />
        <mxCell id="1" parent="0" />
        <mxCell id="NPP5GdCvXKv0nV-kcgQ7-16" value="Diet" style="swimlane;childLayout=stackLayout;horizontal=1;startSize=50;horizontalStack=0;rounded=0;fontSize=14;fontStyle=0;strokeWidth=2;resizeParent=0;resizeLast=1;shadow=0;dashed=0;align=center;arcSize=4;whiteSpace=wrap;html=1;" parent="1" vertex="1">
          <mxGeometry x="-60" y="347.5" width="160" height="105" as="geometry" />
        </mxCell>
        <mxCell id="NPP5GdCvXKv0nV-kcgQ7-17" value="&lt;div&gt;+name: String&lt;br&gt;&lt;/div&gt;&lt;div&gt;+user: User&lt;br&gt;&lt;/div&gt;&lt;div&gt;+menu: List&amp;lt;Strings&amp;gt;&lt;br&gt;&lt;/div&gt;&lt;div&gt;&lt;br&gt;&lt;/div&gt;&lt;div&gt;&lt;br&gt;&lt;/div&gt;" style="align=left;strokeColor=none;fillColor=none;spacingLeft=4;fontSize=12;verticalAlign=top;resizable=0;rotatable=0;part=1;html=1;" parent="NPP5GdCvXKv0nV-kcgQ7-16" vertex="1">
          <mxGeometry y="50" width="160" height="55" as="geometry" />
        </mxCell>
        <mxCell id="NPP5GdCvXKv0nV-kcgQ7-36" style="edgeStyle=orthogonalEdgeStyle;orthogonalLoop=1;jettySize=auto;html=1;startFill=1;endFill=0;rounded=0;entryX=0.5;entryY=1;entryDx=0;entryDy=0;" parent="1" edge="1">
          <mxGeometry relative="1" as="geometry">
            <mxPoint x="720" y="729.9999999999998" as="sourcePoint" />
          </mxGeometry>
        </mxCell>
        <mxCell id="7pt3q2MDJ_d6-O4SjyfG-34" style="rounded=0;orthogonalLoop=1;jettySize=auto;html=1;exitX=1;exitY=0.25;exitDx=0;exitDy=0;entryX=0;entryY=0.5;entryDx=0;entryDy=0;endArrow=none;endFill=0;" parent="1" source="QFNl94cKe365iZrxpkh_-8" target="7pt3q2MDJ_d6-O4SjyfG-33" edge="1">
          <mxGeometry relative="1" as="geometry" />
        </mxCell>
        <mxCell id="7pt3q2MDJ_d6-O4SjyfG-47" style="rounded=0;orthogonalLoop=1;jettySize=auto;html=1;exitX=1;exitY=0.5;exitDx=0;exitDy=0;entryX=0;entryY=0.5;entryDx=0;entryDy=0;endArrow=none;endFill=0;" parent="1" source="QFNl94cKe365iZrxpkh_-8" target="7pt3q2MDJ_d6-O4SjyfG-46" edge="1">
          <mxGeometry relative="1" as="geometry" />
        </mxCell>
        <mxCell id="N_5KMHFPPtvNETul84LO-42" style="rounded=0;orthogonalLoop=1;jettySize=auto;html=1;exitX=0;exitY=0.5;exitDx=0;exitDy=0;entryX=1;entryY=0.5;entryDx=0;entryDy=0;endArrow=none;endFill=0;" parent="1" source="QFNl94cKe365iZrxpkh_-8" target="N_5KMHFPPtvNETul84LO-40" edge="1">
          <mxGeometry relative="1" as="geometry">
            <mxPoint x="823.75" y="950" as="sourcePoint" />
            <Array as="points">
              <mxPoint x="650" y="710" />
            </Array>
          </mxGeometry>
        </mxCell>
        <mxCell id="N_5KMHFPPtvNETul84LO-47" style="rounded=0;orthogonalLoop=1;jettySize=auto;html=1;exitX=1;exitY=0;exitDx=0;exitDy=0;entryX=0;entryY=0.5;entryDx=0;entryDy=0;endArrow=none;endFill=0;" parent="1" source="N_5KMHFPPtvNETul84LO-40" target="QFNl94cKe365iZrxpkh_-40" edge="1">
          <mxGeometry relative="1" as="geometry">
            <Array as="points">
              <mxPoint x="590" y="520" />
            </Array>
          </mxGeometry>
        </mxCell>
        <mxCell id="N_5KMHFPPtvNETul84LO-103" style="rounded=0;orthogonalLoop=1;jettySize=auto;html=1;exitX=0;exitY=0.75;exitDx=0;exitDy=0;entryX=1;entryY=0.5;entryDx=0;entryDy=0;endArrow=none;endFill=0;" parent="1" source="QFNl94cKe365iZrxpkh_-8" target="N_5KMHFPPtvNETul84LO-100" edge="1">
          <mxGeometry relative="1" as="geometry" />
        </mxCell>
        <mxCell id="QFNl94cKe365iZrxpkh_-8" value="&lt;font style=&quot;font-size: 23px;&quot;&gt;ðŸ¯…&lt;/font&gt; User" style="shape=hexagon;perimeter=hexagonPerimeter2;whiteSpace=wrap;html=1;fixedSize=1;fillColor=#ffff88;strokeColor=#36393d;" parent="1" vertex="1">
          <mxGeometry x="795" y="800" width="80" height="50" as="geometry" />
        </mxCell>
        <mxCell id="QFNl94cKe365iZrxpkh_-9" value="&lt;div&gt;System&lt;/div&gt;" style="shape=hexagon;perimeter=hexagonPerimeter2;whiteSpace=wrap;html=1;fixedSize=1;fillColor=#ffff88;strokeColor=#36393d;" parent="1" vertex="1">
          <mxGeometry x="345" y="1140" width="80" height="50" as="geometry" />
        </mxCell>
        <mxCell id="QFNl94cKe365iZrxpkh_-40" value="&lt;div&gt;User is Logged In&lt;/div&gt;" style="shape=parallelogram;perimeter=parallelogramPerimeter;whiteSpace=wrap;html=1;fixedSize=1;fillColor=#ffff88;strokeColor=#36393d;strokeWidth=4;" parent="1" vertex="1">
          <mxGeometry x="755" y="347.5" width="160" height="60" as="geometry" />
        </mxCell>
        <mxCell id="QFNl94cKe365iZrxpkh_-47" value="" style="ellipse;whiteSpace=wrap;html=1;aspect=fixed;fillColor=#e51400;strokeColor=#B20000;fontColor=#ffffff;" parent="1" vertex="1">
          <mxGeometry x="825" y="585" width="20" height="20" as="geometry" />
        </mxCell>
        <mxCell id="QFNl94cKe365iZrxpkh_-48" value="" style="endArrow=none;html=1;rounded=0;entryX=0.5;entryY=1;entryDx=0;entryDy=0;exitX=0.5;exitY=0;exitDx=0;exitDy=0;" parent="1" source="QFNl94cKe365iZrxpkh_-8" target="QFNl94cKe365iZrxpkh_-47" edge="1">
          <mxGeometry width="50" height="50" relative="1" as="geometry">
            <mxPoint x="770" y="680" as="sourcePoint" />
            <mxPoint x="820" y="630" as="targetPoint" />
          </mxGeometry>
        </mxCell>
        <mxCell id="QFNl94cKe365iZrxpkh_-49" value="" style="endArrow=classic;html=1;rounded=0;entryX=0.5;entryY=1;entryDx=0;entryDy=0;exitX=0.5;exitY=0;exitDx=0;exitDy=0;" parent="1" source="QFNl94cKe365iZrxpkh_-47" target="QFNl94cKe365iZrxpkh_-40" edge="1">
          <mxGeometry width="50" height="50" relative="1" as="geometry">
            <mxPoint x="780" y="560" as="sourcePoint" />
            <mxPoint x="830" y="510" as="targetPoint" />
          </mxGeometry>
        </mxCell>
        <mxCell id="7pt3q2MDJ_d6-O4SjyfG-26" style="edgeStyle=orthogonalEdgeStyle;rounded=0;orthogonalLoop=1;jettySize=auto;html=1;exitX=0.5;exitY=0;exitDx=0;exitDy=0;entryX=0;entryY=0.5;entryDx=0;entryDy=0;fillColor=#dae8fc;strokeColor=#6c8ebf;" parent="1" source="7pt3q2MDJ_d6-O4SjyfG-2" target="7pt3q2MDJ_d6-O4SjyfG-14" edge="1">
          <mxGeometry relative="1" as="geometry">
            <Array as="points">
              <mxPoint x="1205" y="300" />
            </Array>
          </mxGeometry>
        </mxCell>
        <mxCell id="7pt3q2MDJ_d6-O4SjyfG-2" value="Login User" style="shape=parallelogram;html=1;strokeWidth=2;perimeter=parallelogramPerimeter;whiteSpace=wrap;rounded=0;arcSize=12;size=0.23;fillColor=#dae8fc;strokeColor=#6c8ebf;" parent="1" vertex="1">
          <mxGeometry x="1110" y="420" width="140" height="50" as="geometry" />
        </mxCell>
        <mxCell id="7pt3q2MDJ_d6-O4SjyfG-6" value="" style="ellipse;whiteSpace=wrap;html=1;aspect=fixed;fillColor=#e51400;strokeColor=#B20000;fontColor=#ffffff;" parent="1" vertex="1">
          <mxGeometry x="1010" y="650" width="20" height="20" as="geometry" />
        </mxCell>
        <mxCell id="7pt3q2MDJ_d6-O4SjyfG-7" value="" style="endArrow=none;html=1;rounded=0;exitX=1;exitY=0.25;exitDx=0;exitDy=0;entryX=0;entryY=0.5;entryDx=0;entryDy=0;" parent="1" source="QFNl94cKe365iZrxpkh_-8" target="7pt3q2MDJ_d6-O4SjyfG-6" edge="1">
          <mxGeometry width="50" height="50" relative="1" as="geometry">
            <mxPoint x="845" y="700" as="sourcePoint" />
            <mxPoint x="1000" y="690" as="targetPoint" />
          </mxGeometry>
        </mxCell>
        <mxCell id="7pt3q2MDJ_d6-O4SjyfG-8" value="" style="endArrow=classic;html=1;rounded=0;entryX=0.25;entryY=1;entryDx=0;entryDy=0;exitX=1;exitY=0;exitDx=0;exitDy=0;" parent="1" source="7pt3q2MDJ_d6-O4SjyfG-6" target="7pt3q2MDJ_d6-O4SjyfG-2" edge="1">
          <mxGeometry width="50" height="50" relative="1" as="geometry">
            <mxPoint x="790" y="570" as="sourcePoint" />
            <mxPoint x="810" y="460" as="targetPoint" />
          </mxGeometry>
        </mxCell>
        <mxCell id="7pt3q2MDJ_d6-O4SjyfG-13" style="rounded=0;orthogonalLoop=1;jettySize=auto;html=1;exitX=0;exitY=0;exitDx=0;exitDy=0;entryX=0.75;entryY=1;entryDx=0;entryDy=0;" parent="1" source="7pt3q2MDJ_d6-O4SjyfG-52" target="QFNl94cKe365iZrxpkh_-40" edge="1">
          <mxGeometry relative="1" as="geometry" />
        </mxCell>
        <mxCell id="7pt3q2MDJ_d6-O4SjyfG-10" value="&lt;div&gt;Fills Login Credentials&lt;/div&gt;" style="ellipse;whiteSpace=wrap;html=1;fillColor=#f8cecc;strokeColor=#b85450;" parent="1" vertex="1">
          <mxGeometry x="860" y="630" width="130" height="40" as="geometry" />
        </mxCell>
        <mxCell id="7pt3q2MDJ_d6-O4SjyfG-11" value="" style="endArrow=classic;html=1;rounded=0;endFill=1;" parent="1" source="QFNl94cKe365iZrxpkh_-8" target="7pt3q2MDJ_d6-O4SjyfG-10" edge="1">
          <mxGeometry width="50" height="50" relative="1" as="geometry">
            <mxPoint x="885" y="725" as="sourcePoint" />
            <mxPoint x="930" y="640" as="targetPoint" />
          </mxGeometry>
        </mxCell>
        <mxCell id="7pt3q2MDJ_d6-O4SjyfG-19" style="rounded=0;orthogonalLoop=1;jettySize=auto;html=1;exitX=1;exitY=0.5;exitDx=0;exitDy=0;entryX=0.75;entryY=0;entryDx=0;entryDy=0;strokeColor=#FF6666;" parent="1" source="7pt3q2MDJ_d6-O4SjyfG-14" target="N_5KMHFPPtvNETul84LO-41" edge="1">
          <mxGeometry relative="1" as="geometry">
            <mxPoint x="584.583333333333" y="296.25" as="targetPoint" />
          </mxGeometry>
        </mxCell>
        <mxCell id="7pt3q2MDJ_d6-O4SjyfG-20" style="rounded=0;orthogonalLoop=1;jettySize=auto;html=1;exitX=0.75;exitY=0;exitDx=0;exitDy=0;strokeColor=#FF6666;" parent="1" source="7pt3q2MDJ_d6-O4SjyfG-14" target="N_5KMHFPPtvNETul84LO-68" edge="1">
          <mxGeometry relative="1" as="geometry">
            <mxPoint x="585" y="600" as="targetPoint" />
          </mxGeometry>
        </mxCell>
        <mxCell id="7pt3q2MDJ_d6-O4SjyfG-21" style="rounded=0;orthogonalLoop=1;jettySize=auto;html=1;exitX=1;exitY=0;exitDx=0;exitDy=0;strokeColor=#FF6666;entryX=1;entryY=0;entryDx=0;entryDy=0;" parent="1" source="7pt3q2MDJ_d6-O4SjyfG-14" target="N_5KMHFPPtvNETul84LO-61" edge="1">
          <mxGeometry relative="1" as="geometry">
            <mxPoint x="366.1538461538462" y="611.5384615384614" as="targetPoint" />
          </mxGeometry>
        </mxCell>
        <mxCell id="7pt3q2MDJ_d6-O4SjyfG-14" value="&lt;div&gt;User is not Logged In&lt;/div&gt;" style="shape=parallelogram;perimeter=parallelogramPerimeter;whiteSpace=wrap;html=1;fixedSize=1;fillColor=#FF6666;strokeColor=#6F0000;strokeWidth=4;size=15;direction=west;flipH=1;fontColor=#ffffff;" parent="1" vertex="1">
          <mxGeometry x="560" y="270" width="160" height="60" as="geometry" />
        </mxCell>
        <mxCell id="7pt3q2MDJ_d6-O4SjyfG-27" value="" style="endArrow=none;html=1;rounded=0;fillColor=#dae8fc;strokeColor=#6c8ebf;" parent="1" edge="1">
          <mxGeometry width="50" height="50" relative="1" as="geometry">
            <mxPoint x="740" y="310" as="sourcePoint" />
            <mxPoint x="740" y="290" as="targetPoint" />
          </mxGeometry>
        </mxCell>
        <mxCell id="7pt3q2MDJ_d6-O4SjyfG-31" style="edgeStyle=orthogonalEdgeStyle;rounded=0;orthogonalLoop=1;jettySize=auto;html=1;exitX=1;exitY=0.5;exitDx=0;exitDy=0;fillColor=#f8cecc;strokeColor=#b85450;" parent="1" source="7pt3q2MDJ_d6-O4SjyfG-30" edge="1">
          <mxGeometry relative="1" as="geometry">
            <mxPoint x="1235" y="441" as="targetPoint" />
          </mxGeometry>
        </mxCell>
        <mxCell id="7pt3q2MDJ_d6-O4SjyfG-30" value="&lt;div&gt;User is not Registered&lt;br&gt;&lt;/div&gt;" style="shape=parallelogram;perimeter=parallelogramPerimeter;whiteSpace=wrap;html=1;fixedSize=1;fillColor=#FF6666;strokeColor=#6F0000;strokeWidth=4;size=15;direction=west;flipH=1;fontColor=#ffffff;" parent="1" vertex="1">
          <mxGeometry x="1365" y="410" width="160" height="60" as="geometry" />
        </mxCell>
        <mxCell id="7pt3q2MDJ_d6-O4SjyfG-32" value="&lt;div&gt;User is Registered&lt;br&gt;&lt;/div&gt;" style="shape=parallelogram;perimeter=parallelogramPerimeter;whiteSpace=wrap;html=1;fixedSize=1;fillColor=#ffff88;strokeColor=#36393d;strokeWidth=4;" parent="1" vertex="1">
          <mxGeometry x="1090" y="600" width="160" height="60" as="geometry" />
        </mxCell>
        <mxCell id="7pt3q2MDJ_d6-O4SjyfG-35" style="rounded=0;orthogonalLoop=1;jettySize=auto;html=1;exitX=1;exitY=0.5;exitDx=0;exitDy=0;entryX=0.5;entryY=1;entryDx=0;entryDy=0;" parent="1" source="7pt3q2MDJ_d6-O4SjyfG-33" target="7pt3q2MDJ_d6-O4SjyfG-32" edge="1">
          <mxGeometry relative="1" as="geometry" />
        </mxCell>
        <mxCell id="7pt3q2MDJ_d6-O4SjyfG-33" value="" style="ellipse;whiteSpace=wrap;html=1;aspect=fixed;fillColor=#e51400;strokeColor=#B20000;fontColor=#ffffff;" parent="1" vertex="1">
          <mxGeometry x="1030" y="740" width="20" height="20" as="geometry" />
        </mxCell>
        <mxCell id="7pt3q2MDJ_d6-O4SjyfG-37" value="" style="endArrow=none;html=1;rounded=0;" parent="1" edge="1">
          <mxGeometry width="50" height="50" relative="1" as="geometry">
            <mxPoint x="1255" y="450" as="sourcePoint" />
            <mxPoint x="1255" y="430" as="targetPoint" />
          </mxGeometry>
        </mxCell>
        <mxCell id="7pt3q2MDJ_d6-O4SjyfG-44" style="edgeStyle=orthogonalEdgeStyle;rounded=0;orthogonalLoop=1;jettySize=auto;html=1;entryX=0.5;entryY=0;entryDx=0;entryDy=0;fillColor=#dae8fc;strokeColor=#6c8ebf;" parent="1" source="7pt3q2MDJ_d6-O4SjyfG-43" target="7pt3q2MDJ_d6-O4SjyfG-30" edge="1">
          <mxGeometry relative="1" as="geometry" />
        </mxCell>
        <mxCell id="7pt3q2MDJ_d6-O4SjyfG-43" value="Register User" style="shape=parallelogram;html=1;strokeWidth=2;perimeter=parallelogramPerimeter;whiteSpace=wrap;rounded=0;arcSize=12;size=0.23;fillColor=#dae8fc;strokeColor=#6c8ebf;" parent="1" vertex="1">
          <mxGeometry x="1375" y="590" width="140" height="50" as="geometry" />
        </mxCell>
        <mxCell id="7pt3q2MDJ_d6-O4SjyfG-45" value="" style="endArrow=none;html=1;rounded=0;" parent="1" edge="1">
          <mxGeometry width="50" height="50" relative="1" as="geometry">
            <mxPoint x="1455.5" y="490" as="sourcePoint" />
            <mxPoint x="1434.5" y="490" as="targetPoint" />
          </mxGeometry>
        </mxCell>
        <mxCell id="7pt3q2MDJ_d6-O4SjyfG-48" style="edgeStyle=orthogonalEdgeStyle;rounded=0;orthogonalLoop=1;jettySize=auto;html=1;exitX=1;exitY=0.5;exitDx=0;exitDy=0;entryX=0.5;entryY=1;entryDx=0;entryDy=0;" parent="1" source="7pt3q2MDJ_d6-O4SjyfG-46" target="7pt3q2MDJ_d6-O4SjyfG-43" edge="1">
          <mxGeometry relative="1" as="geometry" />
        </mxCell>
        <mxCell id="7pt3q2MDJ_d6-O4SjyfG-46" value="" style="ellipse;whiteSpace=wrap;html=1;aspect=fixed;fillColor=#e51400;strokeColor=#B20000;fontColor=#ffffff;" parent="1" vertex="1">
          <mxGeometry x="1070" y="870" width="20" height="20" as="geometry" />
        </mxCell>
        <mxCell id="7pt3q2MDJ_d6-O4SjyfG-52" value="" style="ellipse;whiteSpace=wrap;html=1;aspect=fixed;fillColor=#cce5ff;strokeColor=#36393d;" parent="1" vertex="1">
          <mxGeometry x="915" y="570" width="20" height="20" as="geometry" />
        </mxCell>
        <mxCell id="7pt3q2MDJ_d6-O4SjyfG-53" style="rounded=0;orthogonalLoop=1;jettySize=auto;html=1;entryX=0.75;entryY=1;entryDx=0;entryDy=0;" parent="1" source="7pt3q2MDJ_d6-O4SjyfG-56" target="7pt3q2MDJ_d6-O4SjyfG-32" edge="1">
          <mxGeometry relative="1" as="geometry">
            <mxPoint x="1390" y="740" as="targetPoint" />
            <mxPoint x="1390" y="820" as="sourcePoint" />
          </mxGeometry>
        </mxCell>
        <mxCell id="7pt3q2MDJ_d6-O4SjyfG-59" style="rounded=0;orthogonalLoop=1;jettySize=auto;html=1;exitX=0.5;exitY=0;exitDx=0;exitDy=0;entryX=0.5;entryY=1;entryDx=0;entryDy=0;endArrow=none;endFill=0;" parent="1" source="7pt3q2MDJ_d6-O4SjyfG-54" target="7pt3q2MDJ_d6-O4SjyfG-56" edge="1">
          <mxGeometry relative="1" as="geometry" />
        </mxCell>
        <mxCell id="7pt3q2MDJ_d6-O4SjyfG-54" value="&lt;div&gt;Fills Registering Form&lt;/div&gt;" style="ellipse;whiteSpace=wrap;html=1;fillColor=#f8cecc;strokeColor=#b85450;" parent="1" vertex="1">
          <mxGeometry x="1110" y="760" width="150" height="50" as="geometry" />
        </mxCell>
        <mxCell id="7pt3q2MDJ_d6-O4SjyfG-55" value="" style="endArrow=classic;html=1;rounded=0;exitX=1;exitY=0.5;exitDx=0;exitDy=0;endFill=1;entryX=0;entryY=0.5;entryDx=0;entryDy=0;" parent="1" source="QFNl94cKe365iZrxpkh_-8" edge="1" target="7pt3q2MDJ_d6-O4SjyfG-54">
          <mxGeometry width="50" height="50" relative="1" as="geometry">
            <mxPoint x="1125" y="853" as="sourcePoint" />
            <mxPoint x="1100" y="905" as="targetPoint" />
          </mxGeometry>
        </mxCell>
        <mxCell id="7pt3q2MDJ_d6-O4SjyfG-56" value="" style="ellipse;whiteSpace=wrap;html=1;aspect=fixed;fillColor=#cce5ff;strokeColor=#36393d;" parent="1" vertex="1">
          <mxGeometry x="1190" y="700" width="20" height="20" as="geometry" />
        </mxCell>
        <mxCell id="N_5KMHFPPtvNETul84LO-39" value="Manage Diets" style="shape=parallelogram;perimeter=parallelogramPerimeter;whiteSpace=wrap;html=1;fixedSize=1;fillColor=#dae8fc;strokeColor=#6c8ebf;" parent="1" vertex="1">
          <mxGeometry x="285" y="370" width="140" height="60" as="geometry" />
        </mxCell>
        <mxCell id="N_5KMHFPPtvNETul84LO-43" style="rounded=0;orthogonalLoop=1;jettySize=auto;html=1;exitX=0;exitY=0.5;exitDx=0;exitDy=0;entryX=1;entryY=0.5;entryDx=0;entryDy=0;" parent="1" source="N_5KMHFPPtvNETul84LO-40" target="N_5KMHFPPtvNETul84LO-41" edge="1">
          <mxGeometry relative="1" as="geometry" />
        </mxCell>
        <mxCell id="N_5KMHFPPtvNETul84LO-40" value="" style="ellipse;whiteSpace=wrap;html=1;aspect=fixed;fillColor=#ffff88;strokeColor=#36393d;" parent="1" vertex="1">
          <mxGeometry x="435" y="697" width="20" height="20" as="geometry" />
        </mxCell>
        <mxCell id="N_5KMHFPPtvNETul84LO-88" style="rounded=0;orthogonalLoop=1;jettySize=auto;html=1;exitX=0.5;exitY=1;exitDx=0;exitDy=0;entryX=0;entryY=0.5;entryDx=0;entryDy=0;fillColor=#dae8fc;strokeColor=#6c8ebf;" parent="1" source="N_5KMHFPPtvNETul84LO-41" target="N_5KMHFPPtvNETul84LO-86" edge="1">
          <mxGeometry relative="1" as="geometry" />
        </mxCell>
        <mxCell id="N_5KMHFPPtvNETul84LO-41" value="Add Diet" style="shape=parallelogram;perimeter=parallelogramPerimeter;whiteSpace=wrap;html=1;fixedSize=1;fillColor=#dae8fc;strokeColor=#6c8ebf;" parent="1" vertex="1">
          <mxGeometry x="190" y="730" width="140" height="60" as="geometry" />
        </mxCell>
        <mxCell id="N_5KMHFPPtvNETul84LO-51" style="rounded=0;orthogonalLoop=1;jettySize=auto;html=1;exitX=0.5;exitY=0;exitDx=0;exitDy=0;" parent="1" source="N_5KMHFPPtvNETul84LO-49" target="N_5KMHFPPtvNETul84LO-39" edge="1">
          <mxGeometry relative="1" as="geometry" />
        </mxCell>
        <mxCell id="N_5KMHFPPtvNETul84LO-49" value="" style="ellipse;whiteSpace=wrap;html=1;aspect=fixed;fillColor=#ffff88;strokeColor=#36393d;" parent="1" vertex="1">
          <mxGeometry x="345" y="460" width="20" height="20" as="geometry" />
        </mxCell>
        <mxCell id="N_5KMHFPPtvNETul84LO-57" style="rounded=0;orthogonalLoop=1;jettySize=auto;html=1;exitX=0;exitY=0.25;exitDx=0;exitDy=0;entryX=1;entryY=0.5;entryDx=0;entryDy=0;endArrow=none;endFill=0;" parent="1" source="QFNl94cKe365iZrxpkh_-8" target="N_5KMHFPPtvNETul84LO-60" edge="1">
          <mxGeometry relative="1" as="geometry">
            <mxPoint x="575" y="702" as="sourcePoint" />
            <Array as="points">
              <mxPoint x="670" y="660" />
            </Array>
          </mxGeometry>
        </mxCell>
        <mxCell id="N_5KMHFPPtvNETul84LO-59" style="rounded=0;orthogonalLoop=1;jettySize=auto;html=1;exitX=0;exitY=0.5;exitDx=0;exitDy=0;entryX=1;entryY=0.5;entryDx=0;entryDy=0;" parent="1" source="N_5KMHFPPtvNETul84LO-60" target="N_5KMHFPPtvNETul84LO-61" edge="1">
          <mxGeometry relative="1" as="geometry" />
        </mxCell>
        <mxCell id="N_5KMHFPPtvNETul84LO-60" value="" style="ellipse;whiteSpace=wrap;html=1;aspect=fixed;fillColor=#ffff88;strokeColor=#36393d;" parent="1" vertex="1">
          <mxGeometry x="232.5" y="660" width="20" height="20" as="geometry" />
        </mxCell>
        <mxCell id="N_5KMHFPPtvNETul84LO-61" value="Change Diet" style="shape=parallelogram;perimeter=parallelogramPerimeter;whiteSpace=wrap;html=1;fixedSize=1;fillColor=#dae8fc;strokeColor=#6c8ebf;" parent="1" vertex="1">
          <mxGeometry x="-30" y="717" width="140" height="60" as="geometry" />
        </mxCell>
        <mxCell id="N_5KMHFPPtvNETul84LO-65" value="" style="endArrow=none;html=1;rounded=0;exitX=0;exitY=0.5;exitDx=0;exitDy=0;" parent="1" source="QFNl94cKe365iZrxpkh_-8" edge="1">
          <mxGeometry width="50" height="50" relative="1" as="geometry">
            <mxPoint x="805.154173293065" y="956.0572833836686" as="sourcePoint" />
            <mxPoint x="690" y="810" as="targetPoint" />
          </mxGeometry>
        </mxCell>
        <mxCell id="N_5KMHFPPtvNETul84LO-77" style="rounded=0;orthogonalLoop=1;jettySize=auto;html=1;exitX=0.5;exitY=0;exitDx=0;exitDy=0;entryX=0.5;entryY=1;entryDx=0;entryDy=0;endArrow=none;endFill=0;" parent="1" source="N_5KMHFPPtvNETul84LO-68" target="N_5KMHFPPtvNETul84LO-49" edge="1">
          <mxGeometry relative="1" as="geometry" />
        </mxCell>
        <mxCell id="N_5KMHFPPtvNETul84LO-68" value="Remove Diet" style="shape=parallelogram;perimeter=parallelogramPerimeter;whiteSpace=wrap;html=1;fixedSize=1;fillColor=#dae8fc;strokeColor=#6c8ebf;" parent="1" vertex="1">
          <mxGeometry x="480" y="748.5" width="140" height="60" as="geometry" />
        </mxCell>
        <mxCell id="N_5KMHFPPtvNETul84LO-69" style="rounded=0;orthogonalLoop=1;jettySize=auto;html=1;exitX=0;exitY=0;exitDx=0;exitDy=0;entryX=1;entryY=0.75;entryDx=0;entryDy=0;" parent="1" source="N_5KMHFPPtvNETul84LO-70" target="N_5KMHFPPtvNETul84LO-68" edge="1">
          <mxGeometry relative="1" as="geometry" />
        </mxCell>
        <mxCell id="N_5KMHFPPtvNETul84LO-70" value="" style="ellipse;whiteSpace=wrap;html=1;aspect=fixed;fillColor=#ffff88;strokeColor=#36393d;" parent="1" vertex="1">
          <mxGeometry x="670" y="800" width="20" height="20" as="geometry" />
        </mxCell>
        <mxCell id="N_5KMHFPPtvNETul84LO-78" style="rounded=0;orthogonalLoop=1;jettySize=auto;html=1;entryX=0.5;entryY=1;entryDx=0;entryDy=0;endArrow=none;endFill=0;" parent="1" source="N_5KMHFPPtvNETul84LO-41" target="N_5KMHFPPtvNETul84LO-49" edge="1">
          <mxGeometry relative="1" as="geometry">
            <mxPoint x="470" y="749" as="sourcePoint" />
            <mxPoint x="365" y="580" as="targetPoint" />
          </mxGeometry>
        </mxCell>
        <mxCell id="N_5KMHFPPtvNETul84LO-79" style="rounded=0;orthogonalLoop=1;jettySize=auto;html=1;endArrow=none;endFill=0;exitX=0.75;exitY=0;exitDx=0;exitDy=0;entryX=0.5;entryY=1;entryDx=0;entryDy=0;" parent="1" source="N_5KMHFPPtvNETul84LO-61" edge="1" target="N_5KMHFPPtvNETul84LO-49">
          <mxGeometry relative="1" as="geometry">
            <mxPoint x="285" y="740" as="sourcePoint" />
            <mxPoint x="330" y="530" as="targetPoint" />
          </mxGeometry>
        </mxCell>
        <mxCell id="N_5KMHFPPtvNETul84LO-87" style="rounded=0;orthogonalLoop=1;jettySize=auto;html=1;exitX=0.5;exitY=1;exitDx=0;exitDy=0;entryX=0.5;entryY=1;entryDx=0;entryDy=0;fillColor=#f8cecc;strokeColor=#b85450;" parent="1" source="N_5KMHFPPtvNETul84LO-86" target="N_5KMHFPPtvNETul84LO-61" edge="1">
          <mxGeometry relative="1" as="geometry" />
        </mxCell>
        <mxCell id="N_5KMHFPPtvNETul84LO-86" value="No diet" style="shape=parallelogram;perimeter=parallelogramPerimeter;whiteSpace=wrap;html=1;fixedSize=1;fillColor=#FF6666;strokeColor=#6F0000;strokeWidth=4;size=15;direction=west;flipH=1;fontColor=#ffffff;" parent="1" vertex="1">
          <mxGeometry x="-180" y="890" width="160" height="60" as="geometry" />
        </mxCell>
        <mxCell id="N_5KMHFPPtvNETul84LO-89" value="" style="endArrow=none;html=1;rounded=0;fillColor=#dae8fc;strokeColor=#6c8ebf;" parent="1" edge="1">
          <mxGeometry width="50" height="50" relative="1" as="geometry">
            <mxPoint y="920" as="sourcePoint" />
            <mxPoint x="-10" y="900" as="targetPoint" />
          </mxGeometry>
        </mxCell>
        <mxCell id="N_5KMHFPPtvNETul84LO-90" value="" style="endArrow=none;html=1;rounded=0;fillColor=#f8cecc;strokeColor=#b85450;" parent="1" edge="1">
          <mxGeometry width="50" height="50" relative="1" as="geometry">
            <mxPoint x="20" y="810" as="sourcePoint" />
            <mxPoint y="790" as="targetPoint" />
          </mxGeometry>
        </mxCell>
        <mxCell id="N_5KMHFPPtvNETul84LO-91" value="" style="endArrow=none;html=1;rounded=0;fillColor=#f8cecc;strokeColor=#b85450;" parent="1" edge="1">
          <mxGeometry width="50" height="50" relative="1" as="geometry">
            <mxPoint x="130" y="710" as="sourcePoint" />
            <mxPoint x="120" y="700" as="targetPoint" />
          </mxGeometry>
        </mxCell>
        <mxCell id="N_5KMHFPPtvNETul84LO-92" value="" style="endArrow=none;html=1;rounded=0;fillColor=#f8cecc;strokeColor=#b85450;" parent="1" edge="1">
          <mxGeometry width="50" height="50" relative="1" as="geometry">
            <mxPoint x="320" y="717" as="sourcePoint" />
            <mxPoint x="300" y="697" as="targetPoint" />
          </mxGeometry>
        </mxCell>
        <mxCell id="N_5KMHFPPtvNETul84LO-93" value="" style="endArrow=none;html=1;rounded=0;fillColor=#f8cecc;strokeColor=#b85450;" parent="1" edge="1">
          <mxGeometry width="50" height="50" relative="1" as="geometry">
            <mxPoint x="570" y="727" as="sourcePoint" />
            <mxPoint x="550" y="717" as="targetPoint" />
          </mxGeometry>
        </mxCell>
        <mxCell id="N_5KMHFPPtvNETul84LO-99" value="Check Diet" style="shape=parallelogram;perimeter=parallelogramPerimeter;whiteSpace=wrap;html=1;fixedSize=1;fillColor=#dae8fc;strokeColor=#6c8ebf;" parent="1" vertex="1">
          <mxGeometry x="172.5" y="870" width="140" height="60" as="geometry" />
        </mxCell>
        <mxCell id="N_5KMHFPPtvNETul84LO-101" style="rounded=0;orthogonalLoop=1;jettySize=auto;html=1;exitX=0;exitY=0.5;exitDx=0;exitDy=0;entryX=1;entryY=0.25;entryDx=0;entryDy=0;" parent="1" source="N_5KMHFPPtvNETul84LO-100" target="N_5KMHFPPtvNETul84LO-99" edge="1">
          <mxGeometry relative="1" as="geometry" />
        </mxCell>
        <mxCell id="N_5KMHFPPtvNETul84LO-100" value="" style="ellipse;whiteSpace=wrap;html=1;aspect=fixed;fillColor=#ffff88;strokeColor=#36393d;" parent="1" vertex="1">
          <mxGeometry x="630" y="850" width="20" height="20" as="geometry" />
        </mxCell>
        <mxCell id="N_5KMHFPPtvNETul84LO-104" style="rounded=0;orthogonalLoop=1;jettySize=auto;html=1;exitX=0;exitY=0;exitDx=0;exitDy=0;fillColor=#f8cecc;strokeColor=#b85450;" parent="1" source="N_5KMHFPPtvNETul84LO-86" target="N_5KMHFPPtvNETul84LO-99" edge="1">
          <mxGeometry relative="1" as="geometry">
            <mxPoint x="40" y="870" as="sourcePoint" />
            <mxPoint x="50" y="787" as="targetPoint" />
            <Array as="points" />
          </mxGeometry>
        </mxCell>
        <mxCell id="N_5KMHFPPtvNETul84LO-105" value="" style="endArrow=none;html=1;rounded=0;fillColor=#f8cecc;strokeColor=#b85450;" parent="1" edge="1">
          <mxGeometry width="50" height="50" relative="1" as="geometry">
            <mxPoint x="142.5" y="903.75" as="sourcePoint" />
            <mxPoint x="157.5" y="936.25" as="targetPoint" />
          </mxGeometry>
        </mxCell>
        <mxCell id="nOgI37RvHvX1X2BUlv1E-3" value="" style="endArrow=none;html=1;rounded=0;entryX=0.5;entryY=1;entryDx=0;entryDy=0;exitX=0.5;exitY=0;exitDx=0;exitDy=0;" edge="1" parent="1" source="7pt3q2MDJ_d6-O4SjyfG-10" target="7pt3q2MDJ_d6-O4SjyfG-52">
          <mxGeometry width="50" height="50" relative="1" as="geometry">
            <mxPoint x="860" y="640" as="sourcePoint" />
            <mxPoint x="910" y="590" as="targetPoint" />
          </mxGeometry>
        </mxCell>
        <mxCell id="nOgI37RvHvX1X2BUlv1E-6" value="" style="endArrow=none;html=1;rounded=0;entryX=0;entryY=0.5;entryDx=0;entryDy=0;exitX=1;exitY=0.5;exitDx=0;exitDy=0;" edge="1" parent="1" source="NPP5GdCvXKv0nV-kcgQ7-16" target="N_5KMHFPPtvNETul84LO-39">
          <mxGeometry width="50" height="50" relative="1" as="geometry">
            <mxPoint x="170" y="430" as="sourcePoint" />
            <mxPoint x="220" y="380" as="targetPoint" />
          </mxGeometry>
        </mxCell>
        <mxCell id="nOgI37RvHvX1X2BUlv1E-7" value="" style="endArrow=none;html=1;rounded=0;entryX=0.25;entryY=1;entryDx=0;entryDy=0;exitX=1;exitY=0;exitDx=0;exitDy=0;" edge="1" parent="1" source="N_5KMHFPPtvNETul84LO-70" target="QFNl94cKe365iZrxpkh_-40">
          <mxGeometry width="50" height="50" relative="1" as="geometry">
            <mxPoint x="730" y="700" as="sourcePoint" />
            <mxPoint x="780" y="650" as="targetPoint" />
          </mxGeometry>
        </mxCell>
        <mxCell id="nOgI37RvHvX1X2BUlv1E-8" value="" style="endArrow=none;html=1;rounded=0;entryX=0;entryY=0.5;entryDx=0;entryDy=0;exitX=1;exitY=0;exitDx=0;exitDy=0;" edge="1" parent="1" source="N_5KMHFPPtvNETul84LO-60" target="QFNl94cKe365iZrxpkh_-40">
          <mxGeometry width="50" height="50" relative="1" as="geometry">
            <mxPoint x="550" y="610" as="sourcePoint" />
            <mxPoint x="600" y="560" as="targetPoint" />
          </mxGeometry>
        </mxCell>
        <mxCell id="nOgI37RvHvX1X2BUlv1E-10" value="&lt;div&gt;System is Running&lt;/div&gt;" style="shape=parallelogram;perimeter=parallelogramPerimeter;whiteSpace=wrap;html=1;fixedSize=1;fillColor=#dae8fc;strokeColor=#36393d;strokeWidth=4;" vertex="1" parent="1">
          <mxGeometry x="312.5" y="970" width="145" height="60" as="geometry" />
        </mxCell>
        <mxCell id="nOgI37RvHvX1X2BUlv1E-11" value="" style="ellipse;whiteSpace=wrap;html=1;aspect=fixed;fillColor=#e51400;strokeColor=#B20000;fontColor=#ffffff;" vertex="1" parent="1">
          <mxGeometry x="375" y="1070" width="20" height="20" as="geometry" />
        </mxCell>
        <mxCell id="nOgI37RvHvX1X2BUlv1E-12" value="" style="endArrow=none;html=1;rounded=0;entryX=0.5;entryY=1;entryDx=0;entryDy=0;exitX=0.5;exitY=0;exitDx=0;exitDy=0;" edge="1" parent="1" source="QFNl94cKe365iZrxpkh_-9" target="nOgI37RvHvX1X2BUlv1E-11">
          <mxGeometry width="50" height="50" relative="1" as="geometry">
            <mxPoint x="250" y="1170" as="sourcePoint" />
            <mxPoint x="300" y="1120" as="targetPoint" />
          </mxGeometry>
        </mxCell>
        <mxCell id="nOgI37RvHvX1X2BUlv1E-13" value="" style="endArrow=classic;html=1;rounded=0;entryX=0.5;entryY=1;entryDx=0;entryDy=0;exitX=0.5;exitY=0;exitDx=0;exitDy=0;" edge="1" parent="1" source="nOgI37RvHvX1X2BUlv1E-11" target="nOgI37RvHvX1X2BUlv1E-10">
          <mxGeometry width="50" height="50" relative="1" as="geometry">
            <mxPoint x="310" y="1110" as="sourcePoint" />
            <mxPoint x="360" y="1060" as="targetPoint" />
          </mxGeometry>
        </mxCell>
        <mxCell id="nOgI37RvHvX1X2BUlv1E-14" value="" style="endArrow=none;html=1;rounded=0;entryX=0.5;entryY=1;entryDx=0;entryDy=0;exitX=0.5;exitY=0;exitDx=0;exitDy=0;" edge="1" parent="1" source="nOgI37RvHvX1X2BUlv1E-10" target="N_5KMHFPPtvNETul84LO-40">
          <mxGeometry width="50" height="50" relative="1" as="geometry">
            <mxPoint x="380" y="900" as="sourcePoint" />
            <mxPoint x="430" y="850" as="targetPoint" />
          </mxGeometry>
        </mxCell>
        <mxCell id="nOgI37RvHvX1X2BUlv1E-15" value="" style="endArrow=none;html=1;rounded=0;entryX=0;entryY=1;entryDx=0;entryDy=0;exitX=1;exitY=0;exitDx=0;exitDy=0;" edge="1" parent="1" source="nOgI37RvHvX1X2BUlv1E-10" target="N_5KMHFPPtvNETul84LO-100">
          <mxGeometry width="50" height="50" relative="1" as="geometry">
            <mxPoint x="520" y="950" as="sourcePoint" />
            <mxPoint x="630" y="900" as="targetPoint" />
          </mxGeometry>
        </mxCell>
        <mxCell id="nOgI37RvHvX1X2BUlv1E-16" value="" style="endArrow=none;html=1;rounded=0;entryX=0;entryY=0.5;entryDx=0;entryDy=0;exitX=0.75;exitY=0;exitDx=0;exitDy=0;" edge="1" parent="1" source="nOgI37RvHvX1X2BUlv1E-10" target="N_5KMHFPPtvNETul84LO-70">
          <mxGeometry width="50" height="50" relative="1" as="geometry">
            <mxPoint x="470" y="890" as="sourcePoint" />
            <mxPoint x="520" y="840" as="targetPoint" />
          </mxGeometry>
        </mxCell>
        <mxCell id="nOgI37RvHvX1X2BUlv1E-17" value="" style="endArrow=none;html=1;rounded=0;exitX=0.5;exitY=0;exitDx=0;exitDy=0;entryX=1;entryY=1;entryDx=0;entryDy=0;" edge="1" parent="1" source="nOgI37RvHvX1X2BUlv1E-10" target="N_5KMHFPPtvNETul84LO-60">
          <mxGeometry width="50" height="50" relative="1" as="geometry">
            <mxPoint x="350" y="830" as="sourcePoint" />
            <mxPoint x="400" y="780" as="targetPoint" />
            <Array as="points">
              <mxPoint x="385" y="710" />
            </Array>
          </mxGeometry>
        </mxCell>
        <mxCell id="nOgI37RvHvX1X2BUlv1E-18" value="" style="ellipse;whiteSpace=wrap;html=1;aspect=fixed;fillColor=#ffff88;strokeColor=#36393d;" vertex="1" parent="1">
          <mxGeometry x="1170" y="530" width="20" height="20" as="geometry" />
        </mxCell>
        <mxCell id="nOgI37RvHvX1X2BUlv1E-19" value="" style="endArrow=classic;html=1;rounded=0;entryX=0.5;entryY=1;entryDx=0;entryDy=0;exitX=0.5;exitY=0;exitDx=0;exitDy=0;" edge="1" parent="1" source="nOgI37RvHvX1X2BUlv1E-18" target="7pt3q2MDJ_d6-O4SjyfG-2">
          <mxGeometry width="50" height="50" relative="1" as="geometry">
            <mxPoint x="1140" y="540" as="sourcePoint" />
            <mxPoint x="1190" y="490" as="targetPoint" />
          </mxGeometry>
        </mxCell>
        <mxCell id="nOgI37RvHvX1X2BUlv1E-20" value="" style="endArrow=none;html=1;rounded=0;entryX=0.5;entryY=1;entryDx=0;entryDy=0;exitX=0.5;exitY=0;exitDx=0;exitDy=0;" edge="1" parent="1" source="7pt3q2MDJ_d6-O4SjyfG-32" target="nOgI37RvHvX1X2BUlv1E-18">
          <mxGeometry width="50" height="50" relative="1" as="geometry">
            <mxPoint x="1130" y="620" as="sourcePoint" />
            <mxPoint x="1180" y="570" as="targetPoint" />
          </mxGeometry>
        </mxCell>
        <mxCell id="nOgI37RvHvX1X2BUlv1E-21" value="&lt;div&gt;User Requested Diet&lt;/div&gt;" style="shape=parallelogram;perimeter=parallelogramPerimeter;whiteSpace=wrap;html=1;fixedSize=1;fillColor=#ffff88;strokeColor=#36393d;strokeWidth=4;" vertex="1" parent="1">
          <mxGeometry x="590" y="540" width="160" height="60" as="geometry" />
        </mxCell>
        <mxCell id="nOgI37RvHvX1X2BUlv1E-22" value="" style="ellipse;whiteSpace=wrap;html=1;aspect=fixed;fillColor=#e51400;strokeColor=#B20000;fontColor=#ffffff;" vertex="1" parent="1">
          <mxGeometry x="775" y="630" width="20" height="20" as="geometry" />
        </mxCell>
        <mxCell id="nOgI37RvHvX1X2BUlv1E-23" value="" style="endArrow=none;html=1;rounded=0;entryX=0.5;entryY=1;entryDx=0;entryDy=0;exitX=0.375;exitY=0;exitDx=0;exitDy=0;" edge="1" parent="1" source="QFNl94cKe365iZrxpkh_-8" target="nOgI37RvHvX1X2BUlv1E-22">
          <mxGeometry width="50" height="50" relative="1" as="geometry">
            <mxPoint x="780" y="750" as="sourcePoint" />
            <mxPoint x="830" y="700" as="targetPoint" />
          </mxGeometry>
        </mxCell>
        <mxCell id="nOgI37RvHvX1X2BUlv1E-25" value="" style="endArrow=classic;html=1;rounded=0;exitX=0;exitY=0;exitDx=0;exitDy=0;entryX=1;entryY=0.5;entryDx=0;entryDy=0;" edge="1" parent="1" source="nOgI37RvHvX1X2BUlv1E-22" target="nOgI37RvHvX1X2BUlv1E-21">
          <mxGeometry width="50" height="50" relative="1" as="geometry">
            <mxPoint x="780" y="560" as="sourcePoint" />
            <mxPoint x="830" y="510" as="targetPoint" />
          </mxGeometry>
        </mxCell>
        <mxCell id="nOgI37RvHvX1X2BUlv1E-26" value="" style="endArrow=none;html=1;rounded=0;entryX=0.25;entryY=1;entryDx=0;entryDy=0;exitX=1;exitY=0;exitDx=0;exitDy=0;" edge="1" parent="1" source="N_5KMHFPPtvNETul84LO-40" target="nOgI37RvHvX1X2BUlv1E-21">
          <mxGeometry width="50" height="50" relative="1" as="geometry">
            <mxPoint x="540" y="660" as="sourcePoint" />
            <mxPoint x="590" y="610" as="targetPoint" />
          </mxGeometry>
        </mxCell>
      </root>
    </mxGraphModel>
  </diagram>
</mxfile>
